<svg xmlns="http://www.w3.org/2000/svg" viewBox="0 0 550.73 89.22"><defs><style>.cls-1{fill:#007bff;}.cls-2{fill:#5baaff;}.cls-3{fill:#6db4ff;}.cls-4{fill:#80bdff;}.cls-5{fill:#92c6ff;}.cls-6{fill:#a4d0ff;}.cls-7{fill:#b6d9ff;}.cls-8{fill:#c8e3ff;}.cls-9{fill:#1284ff;}.cls-10{fill:#248eff;}.cls-11{fill:#3797ff;}.cls-12{fill:#49a1ff;}</style></defs><g id="Layer_2" data-name="Layer 2"><g id="Layer_1-2" data-name="Layer 1"><path class="cls-1" d="M73,15.67,46,42.53a2.94,2.94,0,0,0,0,4.16l27,27A2.94,2.94,0,0,1,72.87,78a44.06,44.06,0,1,1,0-66.56A2.92,2.92,0,0,1,73,15.67Z"/><path class="cls-1" d="M232.28,51.17v29a6.44,6.44,0,0,1-6.44,6.44H173.67a6.44,6.44,0,0,1-6.44-6.44V9.32a6.44,6.44,0,0,1,6.44-6.45h29a6.44,6.44,0,0,1,6.44,6.45v29a6.44,6.44,0,0,0,6.44,6.44h10.32A6.44,6.44,0,0,1,232.28,51.17Z"/><path class="cls-1" d="M405.56,37a33.44,33.44,0,0,1-9.64,23.65,6.38,6.38,0,0,0-1,7.5l4.86,9.12a6.45,6.45,0,0,1-5.68,9.48H337.73a6.44,6.44,0,0,1-6.44-6.45V9.32a6.44,6.44,0,0,1,6.44-6.45h33.74A34.07,34.07,0,0,1,405.56,37Z"/><path class="cls-1" d="M475.51,51.17v29a6.45,6.45,0,0,1-6.44,6.44H416.89a6.45,6.45,0,0,1-6.44-6.44V9.32a6.45,6.45,0,0,1,6.44-6.45h29a6.45,6.45,0,0,1,6.44,6.45v29a6.44,6.44,0,0,0,6.44,6.44h10.32A6.45,6.45,0,0,1,475.51,51.17Z"/><path class="cls-1" d="M525.39,86.59h-29A6.44,6.44,0,0,1,490,80.15V46.41a6.47,6.47,0,0,0-.83-3.15l-17.24-30.8a6.44,6.44,0,0,1,5.62-9.59h66.75a6.44,6.44,0,0,1,5.62,9.59l-17.25,30.8a6.46,6.46,0,0,0-.82,3.15V80.15A6.44,6.44,0,0,1,525.39,86.59Z"/><path class="cls-2" d="M78.15,66.08a44.36,44.36,0,0,1-5.51-21.47c0-.28,0-.54,0-.81l44.59.81Z"/><path class="cls-3" d="M117.24,44.61,72.65,43.8A44.2,44.2,0,0,1,79,21.72Z"/><path class="cls-4" d="M117.24,44.61,79,21.72a44.81,44.81,0,0,1,16.45-16Z"/><path class="cls-5" d="M117.24,44.61,95.41,5.7A44.51,44.51,0,0,1,117.24,0h.41Z"/><path class="cls-6" d="M117.24,44.61,117.65,0a44.47,44.47,0,0,1,22.14,6.1Z"/><path class="cls-7" d="M117.24,44.61l22.55-38.5A44.83,44.83,0,0,1,156,22.4Z"/><path class="cls-8" d="M161.86,44.61H117.24L156,22.4A44.41,44.41,0,0,1,161.86,44.61Z"/><path class="cls-1" d="M155.11,68.2,117.24,44.61h44.62A44.33,44.33,0,0,1,155.11,68.2Z"/><path class="cls-9" d="M138.36,83.91l-21.12-39.3L155.11,68.2A44.81,44.81,0,0,1,138.36,83.91Z"/><path class="cls-10" d="M117.24,89.21H116l1.21-44.59,21.12,39.3A44.48,44.48,0,0,1,117.24,89.21Z"/><path class="cls-11" d="M116,89.2a44.33,44.33,0,0,1-22-6.52l23.23-38.07Z"/><path class="cls-12" d="M94,82.68a44.64,44.64,0,0,1-15.86-16.6l39.09-21.47Z"/><path class="cls-2" d="M259.84,5.51A44.36,44.36,0,0,1,281.31,0h.81l-.81,44.59Z"/><path class="cls-3" d="M281.31,44.6,282.12,0A44.21,44.21,0,0,1,304.2,6.33Z"/><path class="cls-4" d="M281.31,44.6,304.2,6.33a44.66,44.66,0,0,1,16,16.45Z"/><path class="cls-5" d="M281.31,44.6l38.91-21.82a44.37,44.37,0,0,1,5.7,21.82V45Z"/><path class="cls-6" d="M281.31,44.6l44.61.42a44.47,44.47,0,0,1-6.11,22.13Z"/><path class="cls-7" d="M281.31,44.6l38.5,22.55a44.86,44.86,0,0,1-16.29,16.17Z"/><path class="cls-8" d="M281.31,89.22V44.6l22.21,38.72A44.51,44.51,0,0,1,281.31,89.22Z"/><path class="cls-1" d="M257.72,82.47,281.31,44.6V89.22A44.33,44.33,0,0,1,257.72,82.47Z"/><path class="cls-9" d="M242,65.72,281.31,44.6,257.72,82.47A44.7,44.7,0,0,1,242,65.72Z"/><path class="cls-10" d="M236.71,44.6c0-.4,0-.81,0-1.21l44.59,1.21L242,65.72A44.34,44.34,0,0,1,236.71,44.6Z"/><path class="cls-11" d="M236.72,43.39a44.33,44.33,0,0,1,6.52-22L281.31,44.6Z"/><path class="cls-12" d="M243.24,21.37a44.72,44.72,0,0,1,16.6-15.86L281.31,44.6Z"/></g></g></svg>