<svg xmlns="http://www.w3.org/2000/svg" viewBox="0 0 177.26 175.05"><defs><style>.cls-1{fill:#2f0eed;}</style></defs><g id="Layer_2" data-name="Layer 2"><g id="Layer_1-2" data-name="Layer 1"><path class="cls-1" d="M161.65,63.21a81.13,81.13,0,0,0-3.44-8.09,3.5,3.5,0,0,0-6.29,3.07,74.19,74.19,0,0,1,3.15,7.41,76.26,76.26,0,0,1,4.53,22.61H130.34a47.44,47.44,0,0,0-1-6.83,3.5,3.5,0,0,0-6.83,1.53,40.49,40.49,0,0,1,1,8.8v0h0a40.17,40.17,0,0,1-9.41,25.79h0v0a40.1,40.1,0,0,1-23.79,13.69h0a40.18,40.18,0,0,1-27-4.84h0l0,0a40.21,40.21,0,0,1-17.58-21.09h0v0a40.24,40.24,0,0,1,.11-27.46v0h0A40.31,40.31,0,0,1,63.45,56.85s0,0,0,0h0a40.06,40.06,0,0,1,19.86-5.25,3.5,3.5,0,0,0,0-7,47.24,47.24,0,0,0-20.22,4.54L48.65,23.71a76.47,76.47,0,0,1,44.93-7.65l-4.2,23a3.5,3.5,0,1,0,6.89,1.25l4.2-23a77.32,77.32,0,0,1,8.88,2.61,3.39,3.39,0,0,0,1.2.22,3.51,3.51,0,0,0,1.19-6.8A83.13,83.13,0,0,0,98.36,9.74H98.3a83.42,83.42,0,0,0-56.2,9.56h0l-.05,0A83.33,83.33,0,0,0,5.17,62.81v0l0,0a83.29,83.29,0,0,0-.24,57s0,0,0,.05v0a83.42,83.42,0,0,0,36.49,43.79l0,0h0a83.46,83.46,0,0,0,41.83,11.28,83.71,83.71,0,0,0,14.28-1.23h.07a83.27,83.27,0,0,0,49.42-28.42h0l0,0a83.34,83.34,0,0,0,19.54-53.55v-.07A83.18,83.18,0,0,0,161.65,63.21ZM37.91,104.31,10.39,114.2a76.29,76.29,0,0,1,.19-45.59L38,78.72a47.27,47.27,0,0,0-.11,25.59Zm-12.8-62a76.2,76.2,0,0,1,17.4-15.14L57,52.62a47.26,47.26,0,0,0-16.54,19.5L13,62A75.76,75.76,0,0,1,25.11,42.35Zm-.41,98.23a75.77,75.77,0,0,1-11.92-19.74l27.51-9.91a47.34,47.34,0,0,0,16.38,19.65L42,155.86A75.91,75.91,0,0,1,24.7,140.58Zm45.19,26.27a75.63,75.63,0,0,1-21.82-7.44l14.68-25.29a47.41,47.41,0,0,0,25.18,4.5l5,28.82A75.85,75.85,0,0,1,69.89,166.85Zm51.51-9a76,76,0,0,1-21.5,8.34l-5-28.81A47.15,47.15,0,0,0,117,124.66l22.38,18.84A76.21,76.21,0,0,1,121.4,157.89Zm33.65-40A76.11,76.11,0,0,1,144,138.1l-22.4-18.83a47.24,47.24,0,0,0,8.77-24l29.25,0A76.15,76.15,0,0,1,155.05,117.88Z"/><path class="cls-1" d="M176.14,11.45a3.51,3.51,0,0,0-4.95.19L110.66,76.85,91.23,79.48l1.19-19.57,50.15-54a3.5,3.5,0,1,0-5.13-4.76l-51,55a3.44,3.44,0,0,0-.92,2.17L84,83.31A3.5,3.5,0,0,0,87.48,87L88,87l24.89-3.37a3.52,3.52,0,0,0,2.09-1.09L176.32,16.4A3.51,3.51,0,0,0,176.14,11.45Z"/><path class="cls-1" d="M73.58,121.36a15.77,15.77,0,1,0,22.3-22.3l-8.67-8.67a3.59,3.59,0,0,0-4.95,0l-8.68,8.67A15.8,15.8,0,0,0,73.58,121.36Zm5-17.35,6.2-6.2,6.2,6.2a8.77,8.77,0,1,1-12.4,0Z"/></g></g></svg>