<svg xmlns="http://www.w3.org/2000/svg" viewBox="0 0 172.12 166.53"><defs><style>.cls-1{fill:#2f0eed;}</style></defs><g id="Layer_2" data-name="Layer 2"><g id="Layer_1-2" data-name="Layer 1"><path class="cls-1" d="M161.51,54.79a3.5,3.5,0,0,0-6.58,2.39,76.05,76.05,0,0,1,4.52,22.59H130.23a47,47,0,0,0-5.11-18.11,3.5,3.5,0,0,0-6.22,3.22,39.57,39.57,0,0,1,4.46,18.39h0v0a40.14,40.14,0,0,1-9.4,25.76h0v0a40.12,40.12,0,0,1-23.76,13.68h0a41.52,41.52,0,0,1-6.86.58A40.1,40.1,0,0,1,63.13,118h0A40.22,40.22,0,0,1,45.53,96.86h0v0a40.24,40.24,0,0,1,.12-27.43v0h0A40.14,40.14,0,0,1,63.4,48.44a0,0,0,0,1,0,0h0a39.51,39.51,0,0,1,15-5,3.5,3.5,0,0,0-.82-7,46.42,46.42,0,0,0-14.59,4.2L48.61,15.33a76.41,76.41,0,0,1,45-7.63l-1.31,7.15a3.51,3.51,0,0,0,2.81,4.08,4.58,4.58,0,0,0,.63.05,3.5,3.5,0,0,0,3.44-2.87L100.44,9a77.52,77.52,0,0,1,12.18,3.92,3.5,3.5,0,0,0,2.69-6.46,83.55,83.55,0,0,0-17-5h-.07a83.37,83.37,0,0,0-56.15,9.55h0l0,0A83.17,83.17,0,0,0,5.17,54.39v0s0,0,0,.05a83.27,83.27,0,0,0-.24,57l0,0v0a83.29,83.29,0,0,0,36.46,43.76l0,0h0a83.23,83.23,0,0,0,56.06,10h.08A83.16,83.16,0,0,0,147,136.89h0l0,0a83.36,83.36,0,0,0,19.52-53.5v-.07A83.11,83.11,0,0,0,161.51,54.79ZM37.87,95.85l-27.49,9.88a76.34,76.34,0,0,1,.19-45.54L38,70.29a47.42,47.42,0,0,0-.11,25.56ZM25.09,34A76.23,76.23,0,0,1,42.47,18.83L57,44.21A47.26,47.26,0,0,0,40.42,63.69L13,53.56A76.05,76.05,0,0,1,25.09,34Zm-.41,98.14a75.76,75.76,0,0,1-11.9-19.72l27.48-9.89A47.2,47.2,0,0,0,56.62,122.1l-14.7,25.26A76,76,0,0,1,24.68,132.09Zm45.15,26.25A76.21,76.21,0,0,1,48,150.9L62.7,125.64a47.29,47.29,0,0,0,25.15,4.5l5,28.78A76,76,0,0,1,69.83,158.34Zm51.46-9a76,76,0,0,1-21.47,8.33l-5-28.77a47.15,47.15,0,0,0,22.14-12.75L139.29,135A76.08,76.08,0,0,1,121.29,149.38Zm33.61-40a76.09,76.09,0,0,1-11.06,20.2L121.47,110.8a47.22,47.22,0,0,0,8.76-24l29.22,0A76,76,0,0,1,154.9,109.41Z"/><path class="cls-1" d="M171.1,33.64l-3.33-3.32a55.78,55.78,0,0,0-78.91,0l-3.33,3.32a3.5,3.5,0,0,0-1,2.48,3.45,3.45,0,0,0,1,2.47l3.33,3.33a55.85,55.85,0,0,0,78.91,0l3.33-3.33a3.5,3.5,0,0,0,1-2.47A3.54,3.54,0,0,0,171.1,33.64ZM162.82,37a48.85,48.85,0,0,1-69,0L93,36.12l.85-.85a48.78,48.78,0,0,1,69,0l.85.85Z"/><circle class="cls-1" cx="128.31" cy="36.12" r="10.92"/></g></g></svg>