<svg xmlns="http://www.w3.org/2000/svg" viewBox="0 0 176.33 176.18"><defs><style>.cls-1{fill:#2f0eed;}</style></defs><g id="Layer_2" data-name="Layer 2"><g id="Layer_1-2" data-name="Layer 1"><path class="cls-1" d="M176,116.4a9.47,9.47,0,0,0-9.46-9.36h0l-54.78.21,36.73-40.54a9.43,9.43,0,0,0-.64-13.34L111.19,20.16a9.45,9.45,0,0,0-13.33.65L82.34,38l-14,15V9.44A9.44,9.44,0,0,0,58.9,0H9.44A9.44,9.44,0,0,0,0,9.44V141.69A33.85,33.85,0,0,0,10.17,166c.33.35.67.66,1,1a33.61,33.61,0,0,0,9.33,6l.37.16c.51.22,1,.43,1.51.61h.06a34.5,34.5,0,0,0,11,2.14,3.47,3.47,0,0,0,1.25.24h0l132.25-.8a9.44,9.44,0,0,0,9.38-9.49ZM68.51,63l19-20.28,15.57-17.18a2.39,2.39,0,0,1,1.68-.79,2.41,2.41,0,0,1,1.76.63l36.66,33.21a2.42,2.42,0,0,1,.16,3.44L68.18,144.93c.1-1.07.16-2.15.16-3.24V63.12A1.22,1.22,0,0,0,68.51,63ZM15.2,161.12l-.09-.08A26.92,26.92,0,0,1,7,141.69V9.44A2.44,2.44,0,0,1,9.44,7H58.9a2.44,2.44,0,0,1,2.44,2.44V141.69a27.21,27.21,0,0,1-36.51,25.52c-.4-.15-.8-.31-1.19-.48l-.18-.08-.16-.07h0a26.73,26.73,0,0,1-7.4-4.8C15.65,161.56,15.42,161.36,15.2,161.12Zm153.43,6.54a2.4,2.4,0,0,1-1.72.72l-112,.68a34.78,34.78,0,0,0,4.76-4.35l46-50.77a3.44,3.44,0,0,0,1.47.33h0l59.39-.23h0a2.45,2.45,0,0,1,2.46,2.41l.29,49.49A2.4,2.4,0,0,1,168.63,167.66Z"/><path class="cls-1" d="M34.17,147.5a5.65,5.65,0,1,0-5.64-5.65A5.65,5.65,0,0,0,34.17,147.5Zm0-7a1.36,1.36,0,1,1-1.36,1.35A1.35,1.35,0,0,1,34.17,140.5Z"/></g></g></svg>